<?xml version="1.0" encoding="UTF-8"?>
<!-- Generator: visioncortex VTracer 0.6.4 -->
<svg version="1.1" xmlns="http://www.w3.org/2000/svg" width="1024" height="1024">
<path d="M0 0 C337.92 0 675.84 0 1024 0 C1024 337.92 1024 675.84 1024 1024 C686.08 1024 348.16 1024 0 1024 C0 686.08 0 348.16 0 0 Z " fill="#F6FCFE" transform="translate(0,0)"/>
<path d="M0 0 C0.91 0 1.82 0 2.76 0.01 C68.96 0.26 132.08 20.16 183.75 62.31 C184.28 62.74 184.8 63.16 185.34 63.6 C200.13 75.59 214.22 89.13 225.75 104.31 C226.74 105.55 227.72 106.78 228.71 108.02 C258.28 145.27 276.91 189.54 284.75 236.31 C285 237.77 285 237.77 285.25 239.25 C290.21 269.69 290.35 304.33 282.75 334.31 C281.47 334.32 280.19 334.32 278.88 334.32 C266.8 334.36 254.72 334.42 242.64 334.5 C236.43 334.54 230.22 334.57 224.01 334.58 C218.02 334.6 212.02 334.63 206.02 334.68 C203.74 334.7 201.46 334.7 199.17 334.7 C195.96 334.71 192.76 334.73 189.55 334.77 C188.61 334.76 187.68 334.76 186.72 334.75 C175.31 334.93 166.27 339.15 158.07 346.9 C151.8 353.54 148.7 362.5 148.54 371.54 C148.52 372.58 148.5 373.62 148.48 374.69 C148.47 375.81 148.45 376.93 148.43 378.08 C148.4 379.8 148.4 379.8 148.37 381.56 C148.31 385.23 148.25 388.89 148.19 392.56 C148.14 395.05 148.1 397.54 148.06 400.02 C147.95 406.12 147.85 412.22 147.75 418.31 C113.26 424.27 77.33 426.45 46.79 406.5 C33.83 397.15 24.81 386.29 21.75 370.31 C19.27 346.8 30.37 326.38 43.89 308.04 C44.72 306.9 44.72 306.9 45.57 305.74 C46.67 304.23 47.79 302.73 48.93 301.24 C51.91 297.36 51.91 297.36 52.74 292.71 C52.41 291.92 52.09 291.13 51.75 290.31 C51.39 289.29 51.03 288.27 50.66 287.22 C50.24 286.09 49.81 284.97 49.38 283.81 C38.83 254.76 39.4 220.13 52.55 191.93 C58.54 179.75 67.34 167.92 78.75 160.31 C72.68 143 53.48 130.66 37.71 123.01 C31.2 119.96 24.64 117.36 17.75 115.31 C17.1 115.12 16.46 114.92 15.79 114.72 C-12.08 106.6 -43.53 109.86 -69.19 123.17 C-74.93 126.37 -80.12 130.24 -85.25 134.31 C-86.02 134.91 -86.78 135.5 -87.57 136.12 C-105.98 151.24 -116.24 174.5 -124.52 196.17 C-133.32 218.85 -148.02 233.64 -170.24 243.49 C-179.16 247.15 -188.6 249.3 -198.23 249.59 C-199.33 249.63 -200.43 249.67 -201.57 249.71 C-203.87 249.78 -206.18 249.85 -208.48 249.92 C-209.57 249.96 -210.67 249.99 -211.8 250.03 C-212.8 250.06 -213.79 250.09 -214.82 250.12 C-217.26 250.16 -217.26 250.16 -219.25 251.31 C-219.82 255.91 -219.55 258.45 -216.81 262.25 C-199.99 282.5 -173.42 290.67 -148.02 293.12 C-143.3 293.45 -138.6 293.37 -133.87 293.3 C-131.71 293.29 -129.55 293.27 -127.39 293.25 C-124.03 293.22 -120.67 293.19 -117.31 293.14 C-114.04 293.1 -110.77 293.08 -107.5 293.05 C-106.01 293.03 -106.01 293.03 -104.48 293 C-97.99 292.97 -90.71 293.22 -85.63 297.76 C-82.17 301.81 -80.87 304.64 -80.98 309.98 C-82.71 325.19 -96.67 334.64 -107.51 343.83 C-139.48 371.04 -163.25 404.63 -168.25 447.31 C-169.36 467.61 -166.4 486.05 -160.25 505.31 C-159.64 507.33 -159.04 509.35 -158.44 511.38 C-158.04 512.69 -157.65 514 -157.25 515.31 C-165.09 510.58 -171.84 504.7 -178.69 498.68 C-179.96 497.57 -181.23 496.47 -182.5 495.37 C-184.43 493.7 -186.35 492.01 -188.25 490.31 C-189.18 489.48 -190.12 488.65 -191.08 487.8 C-241.86 442.28 -270.63 376.19 -278.25 309.31 C-278.4 307.99 -278.4 307.99 -278.56 306.65 C-286.01 235.31 -262.89 161.36 -218.05 105.74 C-217.12 104.6 -216.19 103.45 -215.25 102.31 C-214.54 101.45 -214.54 101.45 -213.83 100.57 C-203.89 88.51 -193.22 77.12 -180.92 67.43 C-179.13 66.01 -177.37 64.54 -175.64 63.04 C-127.99 21.51 -62.71 -0.27 0 0 Z " fill="#000000" transform="translate(476.25,97.6875)"/>
<path d="M0 0 C1.12 -0.01 1.12 -0.01 2.26 -0.02 C4.75 -0.04 7.23 -0.03 9.71 -0.03 C11.5 -0.03 13.29 -0.04 15.08 -0.05 C19.92 -0.07 24.77 -0.08 29.61 -0.07 C33.66 -0.07 37.71 -0.08 41.76 -0.09 C51.32 -0.11 60.88 -0.11 70.44 -0.11 C80.29 -0.1 90.14 -0.12 99.99 -0.16 C108.45 -0.19 116.92 -0.2 125.39 -0.2 C130.44 -0.2 135.49 -0.2 140.54 -0.23 C145.3 -0.25 150.05 -0.25 154.8 -0.23 C156.54 -0.22 158.28 -0.23 160.02 -0.24 C177.71 -0.38 177.71 -0.38 185.28 5.39 C193.17 13.56 193.58 21.82 193.55 32.72 C193.56 33.95 193.56 35.17 193.57 36.44 C193.58 39.79 193.58 43.14 193.58 46.49 C193.58 49.29 193.58 52.09 193.59 54.89 C193.6 61.51 193.6 68.13 193.59 74.74 C193.59 81.55 193.6 88.36 193.62 95.17 C193.64 101.04 193.64 106.9 193.64 112.76 C193.64 116.25 193.64 119.75 193.66 123.24 C193.67 127.14 193.66 131.04 193.65 134.94 C193.66 136.09 193.67 137.23 193.67 138.42 C193.62 146.49 192.65 153.32 187.15 159.64 C186.63 160.27 186.12 160.89 185.58 161.54 C176.91 168.53 167.26 167.97 156.68 167.91 C154.89 167.92 153.11 167.92 151.33 167.93 C146.51 167.95 141.7 167.94 136.88 167.93 C131.83 167.92 126.77 167.93 121.72 167.94 C113.24 167.94 104.76 167.93 96.28 167.92 C86.49 167.89 76.69 167.9 66.9 167.92 C58.47 167.94 50.05 167.94 41.63 167.93 C36.6 167.93 31.58 167.93 26.55 167.94 C21.83 167.95 17.11 167.94 12.38 167.92 C10.65 167.91 8.92 167.92 7.19 167.93 C-10.44 168.01 -10.44 168.01 -18.18 161.25 C-18.81 160.51 -19.45 159.78 -20.1 159.02 C-20.74 158.29 -21.39 157.56 -22.06 156.81 C-26.51 150.35 -26.02 143.48 -26.03 135.94 C-26.04 134.69 -26.04 133.43 -26.05 132.14 C-26.07 128.72 -26.08 125.29 -26.09 121.86 C-26.09 119.72 -26.1 117.58 -26.11 115.43 C-26.13 107.94 -26.14 100.44 -26.15 92.95 C-26.15 85.98 -26.18 79.02 -26.22 72.05 C-26.26 66.06 -26.27 60.06 -26.27 54.07 C-26.27 50.49 -26.28 46.92 -26.31 43.34 C-26.34 39.35 -26.33 35.36 -26.32 31.37 C-26.34 30.2 -26.35 29.03 -26.37 27.82 C-26.29 19.75 -24.74 13 -19.31 6.78 C-13.61 1.63 -7.48 -0.06 0 0 Z " fill="#000000" transform="translate(672.7218780517578,451.6055908203125)"/>
<path d="M0 0 C23.31 20.18 40.49 49.84 42.8 81.07 C42.85 81.98 42.9 82.9 42.94 83.84 C43.1 95.47 43.1 95.47 49.23 104.83 C50.12 105.55 51.02 106.27 51.93 107.02 C59.84 114.04 63.99 125.42 66.61 135.39 C66.94 136.62 66.94 136.62 67.29 137.88 C72.32 160.05 67.57 185.25 56.32 204.73 C48.48 216.87 38.67 225.65 24.73 229.97 C14.67 231.95 5.2 230.28 -3.57 225.11 C-17.15 215.62 -23.73 201.52 -26.7 185.6 C-30.77 159.01 -26.3 130.95 -11.39 108.39 C-6.05 101.22 1.1 96.17 9.61 93.39 C12.33 93.17 14.87 93.25 17.61 93.39 C15.14 64.13 0.52 38.58 -21.39 19.39 C-48.99 -3.17 -84.11 -10.42 -119 -7.38 C-123.9 -6.8 -128.61 -5.82 -133.39 -4.61 C-134.04 -4.45 -134.68 -4.29 -135.34 -4.12 C-156.63 1.38 -176.27 12.27 -192.24 27.36 C-194.21 29.22 -196.24 30.92 -198.33 32.64 C-213.15 45.64 -228.15 66.66 -234.39 85.39 C-235.93 86.79 -235.93 86.79 -237.89 88.33 C-250.89 99.47 -262.29 119.38 -263.65 136.65 C-263.73 137.7 -263.81 138.75 -263.89 139.83 C-264.45 143.64 -264.82 144.94 -267.87 147.37 C-270.99 148.97 -274.08 150.24 -277.39 151.39 C-278.32 151.73 -279.24 152.06 -280.19 152.41 C-282.24 153.12 -284.31 153.77 -286.39 154.39 C-290.36 138.12 -286.53 121.75 -278.37 107.49 C-273.74 100.23 -268.96 94.38 -261.83 89.52 C-255.65 84.7 -253.92 79.05 -251.44 71.89 C-237.71 32.18 -207.61 -1.08 -170.25 -19.78 C-116.31 -45.87 -46.18 -38.68 0 0 Z " fill="#F5FBFD" transform="translate(578.39404296875,173.609375)"/>
<path d="M0 0 C11.35 8.53 19.5 20.77 22.61 34.74 C24.85 53.42 22.91 70.8 11 86 C1.03 97.9 -12.26 103.65 -27.47 105.26 C-38.45 105.78 -49.28 101.52 -58 95 C-59.65 93.35 -61.3 91.7 -63 90 C-63.33 108.15 -63.66 126.3 -64 145 C-72.25 145 -80.5 145 -89 145 C-89 94.84 -89 44.68 -89 -7 C-80.75 -7 -72.5 -7 -64 -7 C-63.67 -3.04 -63.34 0.92 -63 5 C-61.85 3.93 -60.69 2.86 -59.5 1.75 C-55.57 -1.67 -51.83 -4.07 -47 -6 C-46.26 -6.3 -45.53 -6.6 -44.77 -6.91 C-29.58 -12.27 -13.12 -8.79 0 0 Z " fill="#000101" transform="translate(683,737)"/>
<path d="M0 0 C84.35 0 84.35 0 100.78 15.59 C104.29 19.4 106.77 23.33 109 28 C109.41 28.83 109.82 29.67 110.25 30.53 C114.77 41.47 115.2 56.99 111.38 68.25 C110.64 69.86 109.85 71.45 109 73 C108.55 73.87 108.11 74.73 107.64 75.62 C101.17 87.28 91.37 94.53 78.93 99.14 C70.81 101.45 62.75 102.16 54.34 102.1 C53.64 102.1 52.94 102.1 52.22 102.09 C49.65 102.09 47.07 102.08 44.5 102.06 C38.72 102.04 32.95 102.02 27 102 C27 118.17 27 134.34 27 151 C18.09 151 9.18 151 0 151 C0 101.17 0 51.34 0 0 Z " fill="#000001" transform="translate(86,688)"/>
<path d="M0 0 C11.38 8.93 19.44 20.62 22.45 34.93 C22.87 38.87 22.93 42.77 22.89 46.74 C22.88 47.8 22.87 48.85 22.87 49.94 C22.55 64.57 17.85 77.52 7.58 88.3 C-4.91 99.79 -19.99 104.31 -36.82 104.14 C-52.29 103.26 -65.52 96.67 -76.55 85.93 C-87.02 73.87 -91.11 58.98 -90.79 43.25 C-89.65 27.8 -83.03 13.78 -71.68 3.18 C-50.88 -13.48 -21.99 -15.37 0 0 Z " fill="#010102" transform="translate(369.546875,738.07421875)"/>
<path d="M0 0 C3.4 2.75 6.37 5.96 8.89 9.53 C8.89 10.19 8.89 10.85 8.89 11.53 C9.55 11.53 10.21 11.53 10.89 11.53 C11.16 10.94 11.43 10.35 11.71 9.75 C16.18 1.41 24.55 -2.65 33.16 -5.58 C45.13 -8.43 58.52 -7.41 69.19 -1.11 C78.27 5.25 83.95 13.89 86.89 24.53 C87.72 29.41 88.02 34.08 88.01 39.03 C88.01 39.74 88.01 40.45 88.01 41.19 C88.01 43.52 88 45.85 87.99 48.18 C87.99 49.81 87.99 51.44 87.99 53.06 C87.98 57.33 87.97 61.59 87.96 65.85 C87.95 70.21 87.95 74.57 87.94 78.92 C87.93 87.46 87.92 96 87.89 104.53 C79.31 104.53 70.73 104.53 61.89 104.53 C61.89 102.4 61.89 100.27 61.88 98.08 C61.86 91.02 61.82 83.95 61.76 76.89 C61.73 72.61 61.7 68.33 61.7 64.05 C61.69 59.91 61.67 55.77 61.62 51.64 C61.61 50.07 61.6 48.49 61.61 46.92 C61.63 38 61.44 30.02 55.89 22.53 C49 16.76 41.59 16.79 32.89 17.53 C26.94 19.19 23.31 22.5 19.89 27.53 C18.07 32.04 17.63 35.89 17.58 40.73 C17.57 41.42 17.56 42.12 17.55 42.83 C17.51 45.1 17.5 47.38 17.48 49.65 C17.46 51.23 17.44 52.81 17.42 54.4 C17.37 58.55 17.33 62.7 17.29 66.86 C17.25 71.1 17.2 75.34 17.15 79.59 C17.06 87.9 16.97 96.22 16.89 104.53 C8.64 104.53 0.39 104.53 -8.11 104.53 C-8.12 102.52 -8.13 100.52 -8.15 98.45 C-8.2 91.78 -8.27 85.12 -8.34 78.45 C-8.39 74.41 -8.43 70.38 -8.45 66.34 C-8.48 62.43 -8.52 58.53 -8.57 54.63 C-8.59 53.15 -8.6 51.66 -8.6 50.18 C-8.58 35.88 -8.58 35.88 -14.36 23.09 C-20.64 17.23 -26.34 16.98 -34.72 17.18 C-40.8 17.81 -44.88 19.92 -48.98 24.41 C-52.6 29.72 -53.36 34.37 -53.42 40.73 C-53.43 41.42 -53.44 42.12 -53.45 42.83 C-53.49 45.1 -53.5 47.38 -53.52 49.65 C-53.54 51.23 -53.56 52.81 -53.58 54.4 C-53.63 58.55 -53.67 62.7 -53.71 66.86 C-53.75 71.1 -53.8 75.34 -53.85 79.59 C-53.94 87.9 -54.03 96.22 -54.11 104.53 C-62.36 104.53 -70.61 104.53 -79.11 104.53 C-79.11 68.56 -79.11 32.59 -79.11 -4.47 C-71.52 -4.47 -63.93 -4.47 -56.11 -4.47 C-55.78 -1.17 -55.45 2.13 -55.11 5.53 C-54.45 5 -53.8 4.47 -53.12 3.92 C-37.62 -8.07 -17 -11.36 0 0 Z " fill="#010102" transform="translate(485.10546875,734.46875)"/>
<path d="M0 0 C23.23 -3.45 23.23 -3.45 33 0 C39.76 5.01 43.02 12.85 46.37 20.36 C49.27 26.83 52.97 32.7 56.79 38.67 C58.51 41.37 60.19 44.1 61.87 46.84 C62.43 47.74 62.98 48.64 63.56 49.57 C64.81 51.68 65.94 53.79 67 56 C71.6 49.84 75.59 43.42 79.5 36.81 C86.92 24.28 94.92 12.12 103 0 C105.48 -0.27 107.71 -0.35 110.2 -0.29 C111.26 -0.29 111.26 -0.29 112.34 -0.28 C114.6 -0.26 116.86 -0.23 119.12 -0.19 C120.66 -0.17 122.19 -0.16 123.72 -0.15 C127.48 -0.11 131.24 -0.06 135 0 C132.23 4.99 129.24 9.71 125.96 14.38 C124.98 15.8 124 17.21 123.02 18.63 C122.52 19.35 122.02 20.07 121.51 20.82 C119.09 24.32 116.7 27.84 114.32 31.37 C113.61 32.41 113.61 32.41 112.89 33.47 C111.45 35.6 110.01 37.74 108.56 39.88 C108.06 40.61 107.57 41.35 107.05 42.11 C99.66 53.04 92.29 63.99 85 75 C87.6 79.7 90.39 84.11 93.56 88.44 C97.25 93.54 100.88 98.68 104.44 103.88 C104.9 104.54 105.35 105.21 105.83 105.9 C106.76 107.26 107.69 108.62 108.62 109.98 C110.42 112.61 112.22 115.23 114.03 117.85 C115.38 119.82 116.73 121.79 118.08 123.75 C120.22 126.87 122.37 129.98 124.51 133.09 C125.7 134.81 126.88 136.53 128.06 138.25 C128.62 139.06 129.18 139.87 129.76 140.71 C130.28 141.47 130.81 142.23 131.35 143.02 C131.81 143.69 132.28 144.36 132.75 145.06 C133.99 146.98 135.02 148.94 136 151 C131.57 151.27 127.15 151.47 122.71 151.6 C121.21 151.66 119.7 151.73 118.2 151.83 C105.9 152.59 105.9 152.59 101.9 149.24 C100.41 146.89 99.2 144.49 98.02 141.98 C95.86 137.79 93.1 133.96 90.48 130.06 C89.28 128.24 88.08 126.43 86.88 124.61 C85.65 122.74 84.42 120.87 83.19 119 C81.94 117.1 80.68 115.2 79.43 113.3 C77.15 109.84 74.87 106.39 72.59 102.93 C72.14 102.24 71.69 101.55 71.22 100.84 C70.15 99.23 69.08 97.61 68 96 C62.56 103.37 57.36 110.85 52.31 118.5 C47.11 126.35 41.88 134.17 36.56 141.94 C35.74 143.14 35.74 143.14 34.9 144.38 C31.13 149.87 31.13 149.87 30 151 C27.71 151.09 25.41 151.11 23.12 151.1 C22.09 151.1 22.09 151.1 21.04 151.09 C18.84 151.09 16.64 151.08 14.44 151.06 C12.95 151.06 11.46 151.05 9.97 151.05 C6.31 151.04 2.66 151.02 -1 151 C3.2 144.34 7.47 137.74 11.94 131.25 C12.49 130.45 13.03 129.65 13.6 128.83 C18.02 122.39 22.48 115.98 26.94 109.56 C27.6 108.61 28.27 107.65 28.95 106.66 C32.31 101.83 35.7 97.02 39.13 92.23 C39.78 91.32 40.43 90.41 41.1 89.47 C42.34 87.74 43.58 86.01 44.84 84.29 C45.38 83.52 45.93 82.75 46.5 81.96 C46.98 81.29 47.47 80.62 47.97 79.93 C49.31 77.78 49.31 77.78 49 74 C47.61 71.35 47.61 71.35 45.66 68.58 C44.94 67.51 44.21 66.43 43.46 65.32 C42.66 64.15 41.86 62.98 41.06 61.81 C40.24 60.6 39.42 59.39 38.6 58.17 C36.49 55.05 34.37 51.93 32.24 48.81 C30.32 46.01 28.42 43.2 26.51 40.39 C24.39 37.28 22.28 34.16 20.15 31.05 C15.39 24.05 10.65 17.04 5.94 10 C5.34 9.1 4.73 8.21 4.11 7.28 C3.57 6.47 3.02 5.65 2.46 4.81 C1.75 3.74 1.75 3.74 1.02 2.64 C0 1 0 1 0 0 Z " fill="#010101" transform="translate(794,688)"/>
<path d="M0 0 C7.92 0 15.84 0 24 0 C24 10.23 24 20.46 24 31 C33.57 31 43.14 31 53 31 C53 38.26 53 45.52 53 53 C43.76 53 34.52 53 25 53 C25.07 60.32 25.14 67.64 25.24 74.96 C25.28 78.37 25.32 81.78 25.35 85.19 C25.38 89.11 25.43 93.03 25.49 96.95 C25.49 98.16 25.5 99.38 25.51 100.63 C25.59 108.75 25.59 108.75 29 116 C32.21 118.43 35.38 118.27 39.31 118.25 C40.95 118.26 40.95 118.26 42.61 118.27 C46.67 118.06 46.67 118.06 53 116 C53 123.26 53 130.52 53 138 C41.09 143.95 30.59 144.38 18.02 140.2 C10.47 137.21 5.65 132.52 2.13 125.2 C-0.65 117.89 -0.38 110.61 -0.29 102.9 C-0.29 101.46 -0.28 100.01 -0.28 98.57 C-0.27 94.8 -0.24 91.02 -0.21 87.25 C-0.18 83.39 -0.16 79.53 -0.15 75.67 C-0.11 68.11 -0.06 60.56 0 53 C-6.93 53 -13.86 53 -21 53 C-21 45.74 -21 38.48 -21 31 C-14.07 31 -7.14 31 0 31 C0 20.77 0 10.54 0 0 Z " fill="#010203" transform="translate(730,699)"/>
<path d="M0 0 C2.56 0.02 5.12 0.04 7.75 0.06 C7.75 8.31 7.75 16.56 7.75 25.06 C4.99 24.98 2.22 24.9 -0.62 24.81 C-8.7 24.74 -15.57 25.21 -22.04 30.54 C-30.34 39.19 -30.85 49.87 -30.86 61.26 C-30.87 62.7 -30.89 64.14 -30.91 65.59 C-30.95 69.35 -30.97 73.12 -30.99 76.88 C-31.01 80.74 -31.05 84.59 -31.09 88.45 C-31.16 95.98 -31.21 103.52 -31.25 111.06 C-39.5 111.06 -47.75 111.06 -56.25 111.06 C-56.25 75.09 -56.25 39.12 -56.25 2.06 C-48 2.06 -39.75 2.06 -31.25 2.06 C-30.92 6.02 -30.59 9.98 -30.25 14.06 C-29.14 12.85 -28.02 11.63 -26.88 10.38 C-19.08 2.56 -10.79 -0.12 0 0 Z " fill="#020203" transform="translate(269.25,727.9375)"/>
<path d="M0 0 C7.55 5.42 12.57 11.98 15 21 C16.21 31.97 15.76 42.19 9.3 51.42 C4.02 57.97 -2.66 62.37 -11 64 C-20.89 64.96 -29.5 62.64 -37.41 56.54 C-45.1 49.13 -48.1 40.11 -48.5 29.69 C-48.27 19.54 -44.99 11.07 -37.96 3.69 C-27.55 -5.25 -11.84 -7.75 0 0 Z " fill="#F5FBFE" transform="translate(666,755)"/>
<path d="M0 0 C8.95 5.14 13.83 12.52 16.92 22.36 C18.56 31.33 17.43 41.62 12.99 49.63 C11.53 51.68 10 53.49 8.28 55.31 C7.51 56.14 7.51 56.14 6.72 56.99 C1.09 62.42 -6.42 65.39 -14.22 65.81 C-25.29 65.19 -32.78 59.65 -40.04 51.81 C-45.77 43.31 -46.53 34.29 -45.72 24.31 C-43.33 13.75 -38.08 6.38 -29.07 0.54 C-19.95 -4.23 -9.31 -4.36 0 0 Z " fill="#F5FBFE" transform="translate(350.72265625,753.69140625)"/>
<path d="M0 0 C7.62 4.26 11.8 11.85 14.19 20.02 C15.01 23.41 15.51 26.73 15.71 30.2 C15.77 31.07 15.82 31.94 15.88 32.84 C16.33 47.63 12.97 62.41 3.4 74 C-4.19 81.82 -4.19 81.82 -10.09 82.53 C-20.59 82.66 -20.59 82.66 -25.29 78.2 C-35.14 67.85 -35.87 56.12 -35.76 42.49 C-35.4 29.4 -32.51 15.92 -23.26 6.03 C-16.36 -0.2 -9.33 -3.28 0 0 Z " fill="#000101" transform="translate(622.28515625,297.8046875)"/>
<path d="M0 0 C6.02 -0.08 12.05 -0.16 18.25 -0.25 C20.12 -0.29 22 -0.32 23.93 -0.36 C44.33 -0.59 44.33 -0.59 52.24 5.82 C57.75 11.29 59.99 18.35 60.38 26 C60.02 33.33 57.9 40.15 52.81 45.53 C45.65 51.35 37.32 52.16 28.42 52.1 C27.7 52.1 26.97 52.1 26.23 52.09 C23.55 52.09 20.87 52.08 18.19 52.06 C12.19 52.04 6.18 52.02 0 52 C0 34.84 0 17.68 0 0 Z " fill="#F6FCFE" transform="translate(113,713)"/>
<path d="M0 0 C9.96 3.23 19.99 17.36 27.25 24.64 C29.57 26.97 31.91 29.3 34.24 31.62 C35.73 33.12 37.22 34.61 38.71 36.1 C39.4 36.79 40.09 37.48 40.81 38.19 C50 47.43 50 47.43 50.69 52.15 C49.68 59.32 44.24 63.95 39.3 68.86 C38.65 69.52 37.99 70.17 37.32 70.85 C35.94 72.23 34.56 73.61 33.18 74.98 C31.06 77.09 28.94 79.21 26.83 81.34 C25.49 82.68 24.15 84.02 22.8 85.36 C22.17 86 21.54 86.63 20.89 87.29 C16.42 91.71 16.42 91.71 14.19 91.71 C13.95 92.27 13.72 92.83 13.48 93.41 C10.83 98.13 6.53 101.57 2.19 104.71 C-1.63 105.58 -1.63 105.58 -4.81 104.71 C-8.27 102.23 -9.56 100.37 -11.06 96.4 C-10.79 92.32 -10.39 91.81 -7.76 88.95 C-6.8 87.9 -6.8 87.9 -5.83 86.83 C-2.71 83.55 0.44 80.33 3.65 77.15 C4.33 76.47 5.01 75.79 5.71 75.1 C7.84 72.96 9.98 70.84 12.12 68.71 C13.59 67.25 15.05 65.8 16.51 64.34 C20.07 60.79 23.63 57.25 27.19 53.71 C23.05 48.77 18.74 44.15 14.14 39.64 C12.81 38.32 11.48 37 10.14 35.67 C8.06 33.62 5.98 31.57 3.9 29.52 C1.87 27.52 -0.15 25.52 -2.17 23.51 C-2.79 22.91 -3.41 22.3 -4.05 21.67 C-7.16 18.58 -9.89 15.71 -11.81 11.71 C-11.81 7.78 -11.05 6.04 -8.75 2.83 C-5.75 0.66 -3.75 -0.29 0 0 Z " fill="#F2F8FB" transform="translate(688.812744140625,481.29052734375)"/>
<path d="M0 0 C5.23 3.11 8.86 7.09 11.92 12.34 C13.68 19.38 13.17 25.72 9.61 32.09 C5.97 37.39 1.94 40.76 -4.39 42.09 C-10.91 42.84 -16.02 41.96 -21.39 38.09 C-25.95 33.83 -29.03 29.54 -29.69 23.19 C-29.72 15.67 -29.15 11.14 -23.95 5.41 C-17.09 -0.79 -9.15 -3.47 0 0 Z " fill="#010102" transform="translate(433.390625,287.90625)"/>
<path d="M0 0 C1.6 -0.02 1.6 -0.02 3.24 -0.04 C4.96 -0.03 4.96 -0.03 6.71 -0.01 C7.9 -0.02 9.08 -0.02 10.3 -0.03 C12.8 -0.03 15.3 -0.02 17.81 -0 C21.64 0.02 25.47 -0 29.3 -0.03 C31.73 -0.03 34.16 -0.02 36.59 -0.01 C37.74 -0.02 38.89 -0.03 40.07 -0.04 C41.14 -0.03 42.2 -0.01 43.3 0 C44.71 0 44.71 0 46.15 0.01 C49.41 0.67 50.6 1.95 52.65 4.52 C53.22 7.17 53.22 7.17 53.21 10.02 C53.24 10.96 53.26 11.89 53.28 12.86 C52.65 15.52 52.65 15.52 50.84 17.65 C46.01 20.48 41.47 20.11 35.96 20.08 C34.26 20.09 34.26 20.09 32.52 20.1 C30.13 20.11 27.73 20.11 25.33 20.09 C21.67 20.08 18 20.11 14.33 20.15 C12 20.15 9.67 20.15 7.34 20.15 C6.24 20.16 5.15 20.17 4.02 20.19 C-3.58 20.09 -3.58 20.09 -7.54 17.14 C-9.51 14.28 -10 12.89 -9.91 9.46 C-9.91 8.62 -9.91 7.78 -9.91 6.92 C-8.65 1.57 -5.15 0.02 0 0 Z " fill="#F5FBFE" transform="translate(757.34765625,567.482421875)"/>
<path d="M0 0 C0.66 0.33 1.32 0.66 2 1 C1.67 19.48 1.34 37.96 1 57 C-0.65 56.67 -2.3 56.34 -4 56 C-3.01 55.5 -3.01 55.5 -2 55 C-2 37.18 -2 19.36 -2 1 C-1.34 0.67 -0.68 0.34 0 0 Z " fill="#181D27" transform="translate(618,825)"/>
<path d="M0 0 C2.28 3.42 2.22 4.68 2.12 8.69 C2.11 9.68 2.09 10.68 2.07 11.7 C2.04 12.84 2.04 12.84 2 14 C1.01 14 0.02 14 -1 14 C-1.03 12.23 -1.05 10.46 -1.06 8.69 C-1.07 7.7 -1.09 6.72 -1.1 5.7 C-1 3 -1 3 0 0 Z " fill="#1A1E28" transform="translate(682,775)"/>
</svg>
